<svg xmlns="http://www.w3.org/2000/svg" width="1280" height="860" viewBox="0 0 1280 860" font-family="Inter, 'Helvetica Neue', Arial, sans-serif">
  <defs>
    <radialGradient id="shellL" cx="15%" cy="50%" r="50%">
      <stop offset="0%" stop-color="#219EBC" stop-opacity="0.04"/><stop offset="100%" stop-color="#219EBC" stop-opacity="0"/>
    </radialGradient>
    <radialGradient id="shellR" cx="85%" cy="30%" r="50%">
      <stop offset="0%" stop-color="#126783" stop-opacity="0.05"/><stop offset="100%" stop-color="#126783" stop-opacity="0"/>
    </radialGradient>
    <radialGradient id="glowCyan" cx="50%" cy="0%" r="60%"><stop offset="0%" stop-color="#219EBC" stop-opacity="0.10"/><stop offset="100%" stop-color="#219EBC" stop-opacity="0"/></radialGradient>
    <radialGradient id="glowOrange" cx="50%" cy="0%" r="60%"><stop offset="0%" stop-color="#FB8501" stop-opacity="0.10"/><stop offset="100%" stop-color="#FB8501" stop-opacity="0"/></radialGradient>
    <radialGradient id="glowGreen" cx="50%" cy="0%" r="60%"><stop offset="0%" stop-color="#8ECAE6" stop-opacity="0.10"/><stop offset="100%" stop-color="#8ECAE6" stop-opacity="0"/></radialGradient>
    <radialGradient id="glowPurple" cx="50%" cy="0%" r="60%"><stop offset="0%" stop-color="#126783" stop-opacity="0.12"/><stop offset="100%" stop-color="#126783" stop-opacity="0"/></radialGradient>
    <linearGradient id="toolbarAccent" x1="0" y1="0" x2="1" y2="0">
      <stop offset="0%" stop-color="#219EBC" stop-opacity="0"/><stop offset="15%" stop-color="#219EBC" stop-opacity="0.12"/>
      <stop offset="50%" stop-color="#219EBC" stop-opacity="0.9"/><stop offset="85%" stop-color="#219EBC" stop-opacity="0.12"/><stop offset="100%" stop-color="#219EBC" stop-opacity="0"/>
    </linearGradient>
    <radialGradient id="dockBg" cx="50%" cy="0%" r="55%"><stop offset="0%" stop-color="#219EBC" stop-opacity="0.07"/><stop offset="100%" stop-color="#219EBC" stop-opacity="0"/></radialGradient>
    <!-- clip paths so each accent strip follows the card's 16px top radius -->
    <clipPath id="cHero"><rect x="36" y="96" width="1208" height="150" rx="16"/></clipPath>
    <clipPath id="cA"><rect x="36" y="270" width="392" height="120" rx="16"/></clipPath>
    <clipPath id="cB"><rect x="444" y="270" width="392" height="120" rx="16"/></clipPath>
    <clipPath id="cC"><rect x="852" y="270" width="392" height="120" rx="16"/></clipPath>
    <clipPath id="cTbl"><rect x="36" y="414" width="780" height="350" rx="16"/></clipPath>
    <clipPath id="cTrend"><rect x="832" y="414" width="412" height="350" rx="16"/></clipPath>
  </defs>

  <rect width="1280" height="860" fill="#05060A"/>
  <rect width="1280" height="860" fill="url(#shellL)"/>
  <rect width="1280" height="860" fill="url(#shellR)"/>

  <!-- ===== toolbar ===== -->
  <rect x="0" y="0" width="1280" height="64" fill="#0D1119" fill-opacity="0.72"/>
  <rect x="0" y="0" width="1280" height="2" fill="url(#toolbarAccent)"/>
  <line x1="0" y1="64" x2="1280" y2="64" stroke="#FFFFFF" stroke-opacity="0.10"/>
  <!-- hamburger -->
  <rect x="14" y="11" width="42" height="42" rx="10" fill="#FFFFFF" fill-opacity="0.04" stroke="#FFFFFF" stroke-opacity="0.10"/>
  <g stroke="#FFFFFF" stroke-width="2" stroke-linecap="round"><line x1="26" y1="26" x2="44" y2="26"/><line x1="26" y1="32" x2="44" y2="32"/><line x1="26" y1="38" x2="44" y2="38"/></g>
  <text x="72" y="40" fill="#FFFFFF" font-size="16" font-weight="800" letter-spacing="0.5">CB Edge</text>
  <!-- center ticker -->
  <text x="560" y="38" fill="#8ECAE6" font-size="13" font-weight="700">VIX 13.84  ·  ESU 7,520  ·  SPX 7,512  ·  NQU 24,118</text>
  <!-- ET clock -->
  <text x="1040" y="39" fill="#e8edf5" font-size="13" font-weight="700">14:32:08<tspan fill="#8ECAE6" font-size="10"> ET</tspan></text>
  <!-- Notes button (real toolbar style, active) -->
  <rect x="1140" y="11" width="104" height="42" rx="10" fill="#219EBC" fill-opacity="0.10" stroke="#219EBC" stroke-opacity="0.35"/>
  <text x="1192" y="37" fill="#219EBC" font-size="13" font-weight="700" letter-spacing="1.2" text-anchor="middle">🖍 NOTES</text>

  <!-- ===== Hero card (cyan) — accent clipped to rounded top ===== -->
  <g clip-path="url(#cHero)">
    <rect x="36" y="96" width="1208" height="150" fill="#0D1119" fill-opacity="0.45"/>
    <rect x="36" y="96" width="1208" height="150" fill="url(#glowCyan)"/>
    <rect x="36" y="96" width="1208" height="2" fill="#219EBC" fill-opacity="0.55"/>
  </g>
  <rect x="36" y="96" width="1208" height="150" rx="16" fill="none" stroke="#FFFFFF" stroke-opacity="0.10"/>
  <text x="60" y="130" fill="#FFFFFF" font-size="13" font-weight="800" letter-spacing="1.6">OVERVIEW</text>
  <text x="60" y="150" fill="#8ECAE6" font-size="12">Short description of what this page does.</text>
  <text x="60" y="184" fill="#FFFFFF" font-size="13" opacity="0.85">Accent strip now follows the card's 16px corner radius — borderTop on the rounded panel,</text>
  <text x="60" y="204" fill="#FFFFFF" font-size="13" opacity="0.85">not an overhanging square rect. All theme values come from homeTheme.ts.</text>
  <rect x="60" y="218" width="320" height="34" rx="6" fill="#000000" fill-opacity="0.4" stroke="#FFFFFF" stroke-opacity="0.10"/>
  <text x="74" y="240" fill="#FFFFFF" font-size="13" opacity="0.45">An input…</text>
  <rect x="392" y="218" width="110" height="34" rx="6" fill="#219EBC" fill-opacity="0.10" stroke="#219EBC" stroke-opacity="0.25"/>
  <text x="447" y="239" fill="#219EBC" font-size="10" font-weight="700" letter-spacing="1" text-anchor="middle">ACTION</text>

  <!-- ===== stat cards ===== -->
  <g clip-path="url(#cA)"><rect x="36" y="270" width="392" height="120" fill="#0D1119" fill-opacity="0.45"/><rect x="36" y="270" width="392" height="120" fill="url(#glowPurple)"/><rect x="36" y="270" width="392" height="2" fill="#126783" fill-opacity="0.6"/></g>
  <rect x="36" y="270" width="392" height="120" rx="16" fill="none" stroke="#FFFFFF" stroke-opacity="0.10"/>
  <text x="60" y="304" fill="#FFFFFF" font-size="13" font-weight="800" letter-spacing="1.6">METRIC A</text>
  <text x="60" y="356" fill="#FFFFFF" font-size="34" font-weight="800">1,284</text>
  <text x="60" y="378" fill="#8ECAE6" font-size="12">+12.4% vs prior</text>

  <g clip-path="url(#cB)"><rect x="444" y="270" width="392" height="120" fill="#0D1119" fill-opacity="0.45"/><rect x="444" y="270" width="392" height="120" fill="url(#glowGreen)"/><rect x="444" y="270" width="392" height="2" fill="#8ECAE6" fill-opacity="0.6"/></g>
  <rect x="444" y="270" width="392" height="120" rx="16" fill="none" stroke="#FFFFFF" stroke-opacity="0.10"/>
  <text x="468" y="304" fill="#FFFFFF" font-size="13" font-weight="800" letter-spacing="1.6">METRIC B</text>
  <text x="468" y="356" fill="#FFFFFF" font-size="34" font-weight="800">98.2%</text>
  <text x="468" y="378" fill="#8ECAE6" font-size="12">Stable</text>

  <g clip-path="url(#cC)"><rect x="852" y="270" width="392" height="120" fill="#0D1119" fill-opacity="0.45"/><rect x="852" y="270" width="392" height="120" fill="url(#glowOrange)"/><rect x="852" y="270" width="392" height="2" fill="#FB8501" fill-opacity="0.6"/></g>
  <rect x="852" y="270" width="392" height="120" rx="16" fill="none" stroke="#FFFFFF" stroke-opacity="0.10"/>
  <text x="876" y="304" fill="#FFFFFF" font-size="13" font-weight="800" letter-spacing="1.6">METRIC C</text>
  <text x="876" y="356" fill="#FFFFFF" font-size="34" font-weight="800">$42.7k</text>
  <text x="876" y="378" fill="#FB8501" font-size="12">−3.1% vs prior</text>

  <!-- ===== data table (orange) ===== -->
  <g clip-path="url(#cTbl)"><rect x="36" y="414" width="780" height="350" fill="#0D1119" fill-opacity="0.45"/><rect x="36" y="414" width="780" height="350" fill="url(#glowOrange)"/><rect x="36" y="414" width="780" height="2" fill="#FB8501" fill-opacity="0.55"/></g>
  <rect x="36" y="414" width="780" height="350" rx="16" fill="none" stroke="#FFFFFF" stroke-opacity="0.10"/>
  <text x="60" y="448" fill="#FFFFFF" font-size="13" font-weight="800" letter-spacing="1.6">DATA TABLE</text>
  <text x="60" y="468" fill="#8ECAE6" font-size="12">Rows stack with the shell gap automatically.</text>
  <line x1="60" y1="490" x2="792" y2="490" stroke="#FFFFFF" stroke-opacity="0.10"/>
  <g font-size="11" font-weight="700" letter-spacing="1" fill="#FFFFFF" opacity="0.6"><text x="60" y="510">SYMBOL</text><text x="320" y="510">VALUE</text><text x="540" y="510">CHANGE</text><text x="720" y="510">STATUS</text></g>
  <line x1="60" y1="520" x2="792" y2="520" stroke="#FFFFFF" stroke-opacity="0.06"/>
  <g font-size="13" fill="#FFFFFF">
    <text x="60" y="548">SPX</text><text x="320" y="548">7,512.40</text><text x="540" y="548" fill="#8ECAE6">+0.62%</text><rect x="720" y="536" width="52" height="18" rx="9" fill="#8ECAE6" fill-opacity="0.15"/><text x="746" y="549" fill="#8ECAE6" font-size="10" text-anchor="middle">OK</text>
    <line x1="60" y1="562" x2="792" y2="562" stroke="#FFFFFF" stroke-opacity="0.06"/>
    <text x="60" y="588">NDX</text><text x="320" y="588">24,118.7</text><text x="540" y="588" fill="#8ECAE6">+0.41%</text><rect x="720" y="576" width="52" height="18" rx="9" fill="#8ECAE6" fill-opacity="0.15"/><text x="746" y="589" fill="#8ECAE6" font-size="10" text-anchor="middle">OK</text>
    <line x1="60" y1="602" x2="792" y2="602" stroke="#FFFFFF" stroke-opacity="0.06"/>
    <text x="60" y="628">ES</text><text x="320" y="628">7,520.25</text><text x="540" y="628" fill="#EF4444">−0.18%</text><rect x="720" y="616" width="62" height="18" rx="9" fill="#FB8501" fill-opacity="0.15"/><text x="751" y="629" fill="#FB8501" font-size="10" text-anchor="middle">WATCH</text>
    <line x1="60" y1="642" x2="792" y2="642" stroke="#FFFFFF" stroke-opacity="0.06"/>
    <text x="60" y="668">VIX</text><text x="320" y="668">13.84</text><text x="540" y="668" fill="#EF4444">−2.10%</text><rect x="720" y="656" width="52" height="18" rx="9" fill="#8ECAE6" fill-opacity="0.15"/><text x="746" y="669" fill="#8ECAE6" font-size="10" text-anchor="middle">OK</text>
    <line x1="60" y1="682" x2="792" y2="682" stroke="#FFFFFF" stroke-opacity="0.06"/>
    <text x="60" y="708">RTY</text><text x="320" y="708">2,310.9</text><text x="540" y="708" fill="#8ECAE6">+0.88%</text><rect x="720" y="696" width="52" height="18" rx="9" fill="#8ECAE6" fill-opacity="0.15"/><text x="746" y="709" fill="#8ECAE6" font-size="10" text-anchor="middle">OK</text>
  </g>

  <!-- ===== trend (green) ===== -->
  <g clip-path="url(#cTrend)"><rect x="832" y="414" width="412" height="350" fill="#0D1119" fill-opacity="0.45"/><rect x="832" y="414" width="412" height="350" fill="url(#glowGreen)"/><rect x="832" y="414" width="412" height="2" fill="#8ECAE6" fill-opacity="0.55"/></g>
  <rect x="832" y="414" width="412" height="350" rx="16" fill="none" stroke="#FFFFFF" stroke-opacity="0.10"/>
  <text x="856" y="448" fill="#FFFFFF" font-size="13" font-weight="800" letter-spacing="1.6">TREND</text>
  <text x="856" y="468" fill="#8ECAE6" font-size="12">Session intraday</text>
  <line x1="856" y1="710" x2="1220" y2="710" stroke="#FFFFFF" stroke-opacity="0.10"/>
  <line x1="856" y1="500" x2="856" y2="710" stroke="#FFFFFF" stroke-opacity="0.10"/>
  <path d="M856 660 L908 640 L960 668 L1012 600 L1064 612 L1116 560 L1168 540 L1220 512 L1220 710 L856 710 Z" fill="#219EBC" fill-opacity="0.12"/>
  <path d="M856 660 L908 640 L960 668 L1012 600 L1064 612 L1116 560 L1168 540 L1220 512" fill="none" stroke="#219EBC" stroke-width="2.5"/>
  <circle cx="1220" cy="512" r="4" fill="#8ECAE6"/>

  <text x="36" y="804" fill="#FFFFFF" font-size="11" opacity="0.4">Single source of truth: homeTheme.ts → palette · PageShell/Card · DOCK_THEME · homeToolbarAccentBar · homeRefreshButtonStyle</text>
  <text x="36" y="824" fill="#FFFFFF" font-size="11" opacity="0.3">Accents: cyan #219EBC · purple #126783 · orange #FB8501 · green #8ECAE6 — strips clipped to card radius</text>

  <!-- ===== open frosted-dock dropdown — drawn LAST so it sits on top, fully
       opaque. In the live app: blur(18px) + zIndex 100000. ===== -->
  <g>
    <rect x="14" y="74" width="240" height="172" rx="16" fill="#080B11"/>
    <rect x="14" y="74" width="240" height="172" rx="16" fill="url(#dockBg)"/>
    <rect x="14" y="74" width="240" height="172" rx="16" fill="none" stroke="#FFFFFF" stroke-opacity="0.12"/>
    <rect x="14" y="74" width="240" height="2" fill="#219EBC" fill-opacity="0.5"/>
    <rect x="22" y="84" width="224" height="34" rx="10" fill="#15303a" stroke="#219EBC" stroke-opacity="0.30"/>
    <text x="38" y="106" fill="#8ECAE6" font-size="14" font-weight="700">⌂  Home</text>
    <text x="38" y="140" fill="#FFFFFF" font-size="14">⊞  Traders Dashboard</text>
    <text x="38" y="170" fill="#FFFFFF" font-size="14">↔  Estimated Moves</text>
    <rect x="22" y="180" width="224" height="30" rx="9" fill="#102229"/>
    <text x="38" y="200" fill="#FFFFFF" font-size="14">▦  Analytics</text>
    <text x="38" y="230" fill="#FFFFFF" font-size="14">⑊  ES Candles</text>
  </g>
</svg>
